<svg xmlns="http://www.w3.org/2000/svg" xml:space="preserve" width="368.6" height="138.2"><path d="M2765 936c0 56-45 101-101 101H101C45 1037 0 992 0 936V101C0 45 45 0 101 0h2563c56 0 101 45 101 101v835" style="fill:#231f20;fill-opacity:1;fill-rule:evenodd;stroke:none" transform="matrix(.1 0 0 -.1 0 138)"/><path d="m1962 84 642 434-642 435a62 62 0 0 1-86-17c-13-18-11-38-5-61l37-126H173V287h1735l-36-122c-7-26-10-45 4-65 19-28 57-35 86-16" style="fill:#f68512;fill-opacity:1;fill-rule:evenodd;stroke:none" transform="matrix(.1 0 0 -.1 0 138)"/><path d="M1850 593c0-15-8-29-22-36-8-5-14-6-31-6h-66v84h66c18 0 23-1 31-6 14-7 22-21 22-36m62-248-61 161a97 97 0 0 1 2 173c-17 9-36 11-62 11h-114V345h54v150h66l56-150zm-305 123v222h-55V468c0-45-25-74-63-74s-63 29-63 74v222h-55V468c0-26 7-51 16-71a118 118 0 0 1 204 0c10 20 16 45 16 71zm-354 49c0-27-6-61-14-79-12-30-27-44-53-44-22 0-36 9-47 27-13 22-21 59-21 96 0 29 5 60 14 81 12 30 29 44 55 42 21-1 34-8 45-26 14-23 21-58 21-97zm54 0c0 43-8 87-23 117-22 43-52 62-95 62-40 0-68-12-89-39-23-32-38-83-38-140 1-42 10-88 25-117 20-42 51-62 99-62 36 0 64 13 84 39 24 31 37 85 37 140zm-277 125v48H817v-48h78V345h55v297ZM801 345v55H641v95h100v56H641v84h149v55H586V345ZM466 518c0-46-11-84-31-104-10-10-21-14-39-14h-54v235h61c15 0 27-6 36-14 16-18 27-57 27-103zm56 0c0 68-20 122-57 154-18 14-31 18-66 18H287V345h125c18 1 36 7 50 19 38 30 60 85 60 154" style="fill:#231f20;fill-opacity:1;fill-rule:evenodd;stroke:none" transform="matrix(.1 0 0 -.1 0 138)"/></svg>